<svg xmlns="http://www.w3.org/2000/svg" width="96" height="96" viewBox="0 0 96 96">
  <rect width="96" height="96" rx="19" fill="#39B9E7"/>
  <path fill="#FFE15A" d="M43 15h10v8H43zm0 58h10v8H43zm31-28h8v10h-8zM14 45h8v10h-8zm51.9-21.1 5.7-5.7 7.1 7.1-5.7 5.7zM17.3 70.7l5.7-5.7 7.1 7.1-5.7 5.7zm54.1 1.7 7.1-7.1-5.7-5.7-7.1 7.1zM23 31.1l7.1-7.1-5.7-5.7-7.1 7.1z"/>
  <circle cx="48" cy="48" r="24" fill="#FFD43B"/>
  <path fill="#F4B926" d="M36 68c4 2.6 8 4 12 4 13.3 0 24-10.7 24-24 0-4.8-1.4-9.2-3.9-12.9C66.7 52.9 53.2 67.1 36 68z"/>
  <path fill="#EEF8FF" d="M67.9 68H36.3C27.9 68 22 62.5 22 55.1c0-7.1 5.5-12.8 12.5-13.1C37.1 33.8 44.2 29 52 29c10.1 0 18.4 8.1 18.8 18.1 5.6 1.2 9.2 5.6 9.2 10.6C80 63.8 75.2 68 67.9 68z"/>
  <path fill="#CDEBFA" d="M67.9 68H36.3c-5.6 0-10.1-2.4-12.6-6.3 3.4 1.8 7.2 2.6 11.2 2.6h31.6c5.8 0 10.3-2.6 12.6-6.5.1 5.9-4.6 10.2-11.2 10.2z"/>
  <path fill="#178ED1" d="M35 74c0-2.2 2.3-5.4 4.4-8.1 2.1 2.7 4.4 5.9 4.4 8.1a4.4 4.4 0 0 1-8.8 0zm13.6 7c0-2.2 2.3-5.4 4.4-8.1 2.1 2.7 4.4 5.9 4.4 8.1a4.4 4.4 0 0 1-8.8 0zm13.6-7c0-2.2 2.3-5.4 4.4-8.1 2.1 2.7 4.4 5.9 4.4 8.1a4.4 4.4 0 0 1-8.8 0z"/>
</svg>
